<?xml version="1.0" standalone="no"?>
<!DOCTYPE svg PUBLIC "-//W3C//DTD SVG 20010904//EN"
 "http://www.w3.org/TR/2001/REC-SVG-20010904/DTD/svg10.dtd">
<svg version="1.0" xmlns="http://www.w3.org/2000/svg"
 width="500.000000pt" height="500.000000pt" viewBox="0 0 500.000000 500.000000"
 preserveAspectRatio="xMidYMid meet">

<g transform="translate(0.000000,500.000000) scale(0.100000,-0.100000)"
fill="#000000" stroke="none">
<path d="M2370 3923 c-343 -55 -637 -206 -866 -445 -239 -249 -393 -615 -394
-936 l0 -62 348 2 347 3 6 101 c20 326 225 587 539 686 64 20 95 23 215 23
127 -1 148 -3 220 -29 128 -44 201 -90 301 -190 78 -78 98 -105 137 -186 58
-119 77 -189 84 -312 l6 -98 350 0 350 0 -6 113 c-19 365 -208 738 -497 981
-217 182 -430 286 -685 336 -83 15 -142 20 -268 19 -89 -1 -173 -4 -187 -6z
m435 -312 c384 -101 691 -398 798 -772 14 -46 28 -114 32 -151 l7 -68 -61 0
c-55 0 -61 2 -66 23 -3 12 -11 54 -19 92 -40 196 -134 364 -285 508 -117 111
-221 175 -364 222 -101 34 -125 38 -243 43 -210 7 -383 -39 -550 -147 -238
-154 -395 -392 -445 -675 l-11 -66 -59 0 c-58 0 -59 1 -59 28 0 95 47 258 107
377 164 323 470 550 818 606 89 14 312 3 400 -20z"/>
<path d="M1116 2298 c4 -34 12 -87 18 -117 l11 -56 393 -3 c215 -1 392 -1 392
1 0 2 -18 38 -39 80 -22 42 -45 94 -52 116 l-12 41 -359 0 -359 0 7 -62z m542
-55 c-81 -2 -216 -2 -300 0 -84 1 -18 3 147 3 165 0 234 -2 153 -3z"/>
<path d="M3287 2353 c-4 -3 -7 -13 -7 -21 0 -8 -20 -57 -45 -110 -25 -52 -45
-96 -45 -98 0 -3 177 -3 393 -2 l392 3 12 70 c6 39 14 91 18 118 l6 47 -359 0
c-197 0 -362 -3 -365 -7z m221 -110 c-10 -2 -28 -2 -40 0 -13 2 -5 4 17 4 22
1 32 -1 23 -4z m350 0 c-53 -2 -143 -2 -200 0 -57 1 -13 3 97 3 110 0 156 -2
103 -3z"/>
<path d="M1210 1933 c0 -10 15 -45 33 -78 l32 -60 408 -3 408 -2 152 44 c254
75 349 104 355 110 3 3 -308 6 -691 6 -657 0 -697 -1 -697 -17z"/>
<path d="M3040 1940 c-25 -5 -58 -13 -75 -20 -16 -7 -73 -25 -125 -40 -52 -16
-134 -40 -182 -54 -165 -49 -263 -78 -401 -117 l-137 -39 -381 0 c-437 0 -405
12 -294 -108 l67 -72 271 0 c219 1 280 4 312 16 22 9 58 19 81 24 22 5 96 25
165 46 68 20 153 44 189 54 104 28 452 130 485 143 20 8 162 13 429 17 l398 5
34 65 c18 36 34 71 34 78 0 9 -88 12 -412 11 -227 -1 -433 -5 -458 -9z m-1477
-327 c-18 -2 -48 -2 -65 0 -18 2 -4 4 32 4 36 0 50 -2 33 -4z m295 0 c-38 -2
-98 -2 -135 0 -38 2 -7 3 67 3 74 0 105 -1 68 -3z m110 -90 c-81 -2 -216 -2
-300 0 -84 1 -18 3 147 3 165 0 234 -2 153 -3z"/>
<path d="M3025 1643 c-92 -28 -122 -37 -338 -97 -87 -24 -161 -47 -164 -50 -4
-3 239 -6 540 -6 l546 0 70 80 c39 44 71 85 71 90 0 6 -115 10 -322 9 -313 -1
-325 -2 -403 -26z m68 -30 c-7 -2 -19 -2 -25 0 -7 3 -2 5 12 5 14 0 19 -2 13
-5z m365 0 c-65 -2 -171 -2 -235 0 -65 1 -12 3 117 3 129 0 182 -2 118 -3z
m165 0 c-7 -2 -19 -2 -25 0 -7 3 -2 5 12 5 14 0 19 -2 13 -5z m-450 -90 c-7
-2 -19 -2 -25 0 -7 3 -2 5 12 5 14 0 19 -2 13 -5z m180 0 c-18 -2 -48 -2 -65
0 -18 2 -4 4 32 4 36 0 50 -2 33 -4z"/>
<path d="M2349 1446 c-3 -3 -56 -20 -119 -38 -111 -32 -122 -33 -344 -38
l-229 -5 54 -37 c80 -54 158 -98 174 -98 8 0 15 -3 15 -7 0 -30 61 -33 664
-33 500 1 616 3 636 14 21 12 -65 14 -609 15 -349 1 -636 3 -639 6 -3 3 288 5
647 5 602 0 654 1 684 18 31 16 4 17 -703 22 -631 4 -678 6 -330 9 223 2 560
5 751 6 273 2 350 5 370 16 21 12 -85 15 -771 19 -437 3 -763 8 -725 12 39 5
404 8 812 8 l742 0 58 46 c32 26 62 51 68 55 5 5 -258 9 -596 9 -333 0 -608
-2 -610 -4z m74 -23 c-13 -2 -33 -2 -45 0 -13 2 -3 4 22 4 25 0 35 -2 23 -4z
m54 1 c-3 -3 -12 -4 -19 -1 -8 3 -5 6 6 6 11 1 17 -2 13 -5z m40 0 c-3 -3 -12
-4 -19 -1 -8 3 -5 6 6 6 11 1 17 -2 13 -5z m60 0 c-3 -3 -12 -4 -19 -1 -8 3
-5 6 6 6 11 1 17 -2 13 -5z m140 0 c-3 -3 -12 -4 -19 -1 -8 3 -5 6 6 6 11 1
17 -2 13 -5z m331 -51 c-148 -2 -388 -2 -535 0 -148 1 -27 2 267 2 294 0 415
-1 268 -2z"/>
<path d="M2100 1135 c19 -7 55 -14 80 -14 30 -1 40 -4 31 -10 -10 -7 -6 -10
15 -15 149 -29 322 -39 469 -27 129 11 217 29 209 42 -3 5 14 9 38 10 24 0 61
6 83 14 34 11 -32 13 -460 13 -430 0 -495 -1 -465 -13z m725 -25 c-72 -8 -535
-3 -544 5 -2 3 135 4 305 4 195 -1 283 -5 239 -9z"/>
</g>
</svg>
